<svg xmlns="http://www.w3.org/2000/svg" width="134" height="134" viewBox="0 0 134 134" fill="none">
  <path d="M55.8333 100.5H50.25C40.9817 100.5 33.5 93.0184 33.5 83.75V67C33.5 63.9292 36.0125 61.4167 39.0833 61.4167C42.1542 61.4167 44.6667 63.9292 44.6667 67V83.75C44.6667 86.8767 47.1792 89.3334 50.25 89.3334H55.8333V100.5ZM78.1667 78.1667H83.75C86.8208 78.1667 89.3333 75.6542 89.3333 72.5834V61.4167C89.3333 58.3459 91.8458 55.8334 94.9167 55.8334C97.9875 55.8334 100.5 58.3459 100.5 61.4167V72.5834C100.5 81.8517 93.0183 89.3334 83.75 89.3334H78.1667V78.1667Z" fill="#8629FF"/>
  <path d="M78.1663 117.25H55.833V33.5C55.833 27.3584 60.858 22.3334 66.9997 22.3334C73.1413 22.3334 78.1663 27.3584 78.1663 33.5V117.25Z" fill="#A980FF"/>
</svg>

