<svg width="80" height="80" viewBox="0 0 80 80" fill="none" xmlns="http://www.w3.org/2000/svg">
<path d="M0 8C0 3.58172 3.58172 0 8 0H72C76.4183 0 80 3.58172 80 8V72C80 76.4183 76.4183 80 72 80H8C3.58172 80 0 76.4183 0 72V8Z" fill="#EAE7FF"/>
<g clip-path="url(#clip0_2482_4503)">
<rect x="16" y="16" width="48" height="48" rx="8" fill="#6E3FFF"/>
<g opacity="0.3">
<path fill-rule="evenodd" clip-rule="evenodd" d="M16.2131 62.8252C8.6005 55.5748 11.071 43.6743 12.886 34.3372C14.2813 27.1593 20.5379 23.5176 24.917 18.0489C30.4864 11.0937 32.0728 -1.84457 41.5827 -1.4995C51.0548 -1.15581 56.0615 11.4329 62.469 19.4114C67.9728 26.2647 75.2333 32.6891 75.6434 40.9124C76.0555 49.179 70.6476 55.6582 64.5041 60.2275C58.9695 64.3438 51.5495 63.8473 44.2809 64.2383C34.7001 64.7537 23.8144 70.0649 16.2131 62.8252Z" fill="white" fill-opacity="0.42"/>
<path fill-rule="evenodd" clip-rule="evenodd" d="M15.8612 54.3625C12.8321 46.2158 19.3041 38.1885 24.2876 31.8463C28.1187 26.9707 34.3053 26.4786 39.7598 23.9482C46.6969 20.73 52.8924 11.6101 60.0313 15.2645C67.1419 18.9043 66.1226 30.1171 67.9497 38.3785C69.5191 45.4747 72.597 52.8773 69.7438 59.1802C66.8755 65.5163 60.2452 68.4358 53.7879 69.6628C47.9706 70.7681 42.488 67.7466 36.7794 65.4437C29.2549 62.4081 18.8857 62.4971 15.8612 54.3625Z" fill="white" fill-opacity="0.42"/>
<path fill-rule="evenodd" clip-rule="evenodd" d="M23.5611 48.3235C23.0647 40.7629 30.0123 35.6518 35.3994 31.5815C39.5407 28.4524 44.5198 29.5709 49.3949 28.8042C55.5952 27.829 62.5783 21.736 67.3466 26.557C72.0958 31.3589 68.6988 40.4818 68.2234 47.8411C67.8151 54.1624 68.5221 61.113 64.8194 65.6773C61.0972 70.2656 55.2073 71.0669 49.8452 70.4958C45.0147 69.9813 41.4025 66.0991 37.4463 62.7618C32.2316 58.3629 24.0567 55.8728 23.5611 48.3235Z" fill="white" fill-opacity="0.94"/>
</g>
<path d="M45.9998 30.0005L44.7398 32.7505L41.9998 34.0005L44.7398 35.2605L45.9998 38.0005L47.2498 35.2605L49.9998 34.0005L47.2498 32.7505L45.9998 30.0005ZM42.4398 41.7305C42.9798 41.0905 43.4098 40.3505 43.6698 39.5305C43.0198 39.2505 42.4198 38.8705 41.9098 38.3905C41.4998 40.4605 39.6898 42.0005 37.4998 42.0005C34.9998 42.0005 32.9998 40.0005 32.9998 37.5005C32.9998 35.0005 34.9998 33.0005 37.4998 33.0005C38.4298 33.0005 39.2898 33.2805 40.0098 33.7505C40.0398 33.0305 40.1998 32.3405 40.4598 31.7105C39.5498 31.2505 38.5398 31.0005 37.5098 31.0005C35.7898 31.0005 34.1298 31.6805 32.9098 32.9005C31.6898 34.1205 31.0098 35.7705 31.0098 37.5005C31.0098 39.2305 31.6898 40.8805 32.9098 42.1005C34.1298 43.3205 35.7798 44.0005 37.5098 44.0005C39.1198 44.0005 40.5998 43.4105 41.7398 42.4405L42.0098 42.7105V43.5005L47.0098 48.5005L48.5098 47.0005L43.5098 42.0005H42.7198L42.4498 41.7305H42.4398Z" fill="white"/>
</g>
<defs>
<clipPath id="clip0_2482_4503">
<rect x="16" y="16" width="48" height="48" rx="8" fill="white"/>
</clipPath>
</defs>
</svg>
