<svg width="80" height="80" viewBox="0 0 80 80" fill="none" xmlns="http://www.w3.org/2000/svg">
<path d="M0 8C0 3.58172 3.58172 0 8 0H72C76.4183 0 80 3.58172 80 8V72C80 76.4183 76.4183 80 72 80H8C3.58172 80 0 76.4183 0 72V8Z" fill="#FFE4E2"/>
<path d="M49.9167 25.4551H30.0833C28.525 25.4551 27.25 26.7301 27.25 28.2884V48.1217C27.25 49.6801 28.525 50.9551 30.0833 50.9551H49.9167C51.475 50.9551 52.75 49.6801 52.75 48.1217V28.2884C52.75 26.7301 51.475 25.4551 49.9167 25.4551ZM36.4583 37.4967C36.4583 38.6301 35.4667 39.6217 34.3333 39.6217H32.9167V42.4551H30.7917V33.9551H34.3333C35.4667 33.9551 36.4583 34.9467 36.4583 36.0801V37.4967ZM43.5417 40.3301C43.5417 41.4634 42.55 42.4551 41.4167 42.4551H37.875V33.9551H41.4167C42.55 33.9551 43.5417 34.9467 43.5417 36.0801V40.3301ZM49.2083 36.0801H47.0833V37.4967H49.2083V39.6217H47.0833V42.4551H44.9583V33.9551H49.2083V36.0801ZM40 36.0801H41.4167V40.3301H40V36.0801ZM32.9167 36.0801H34.3333V37.4967H32.9167V36.0801Z" fill="#D92739"/>
</svg>
