<svg width="275" height="283" viewBox="0 0 275 283" fill="none" xmlns="http://www.w3.org/2000/svg">
<path d="M0 8.00001C0 3.58173 3.58172 0 8 0H267C271.418 0 275 3.58172 275 8V275C275 279.418 271.418 283 267 283H7.99999C3.58171 283 0 279.418 0 275V8.00001Z" fill="#EAE7FF"/>
<g clip-path="url(#clip0_2352_12096)">
<rect x="113.5" y="117.5" width="48" height="48" rx="8" fill="#6E3FFF"/>
<g opacity="0.3">
<path fill-rule="evenodd" clip-rule="evenodd" d="M113.713 164.326C106.101 157.075 108.571 145.175 110.386 135.838C111.781 128.66 118.038 125.018 122.417 119.549C127.986 112.594 129.573 99.6559 139.083 100.001C148.555 100.345 153.562 112.933 159.969 120.912C165.473 127.765 172.733 134.19 173.143 142.413C173.556 150.679 168.148 157.159 162.004 161.728C156.47 165.844 149.049 165.348 141.781 165.739C132.2 166.254 121.314 171.565 113.713 164.326Z" fill="white" fill-opacity="0.42"/>
<path fill-rule="evenodd" clip-rule="evenodd" d="M113.361 155.863C110.332 147.716 116.804 139.689 121.788 133.347C125.619 128.471 131.805 127.979 137.26 125.449C144.197 122.23 150.392 113.111 157.531 116.765C164.642 120.405 163.623 131.618 165.45 139.879C167.019 146.975 170.097 154.378 167.244 160.681C164.376 167.017 157.745 169.936 151.288 171.163C145.471 172.269 139.988 169.247 134.279 166.944C126.755 163.909 116.386 163.998 113.361 155.863Z" fill="white" fill-opacity="0.42"/>
<path fill-rule="evenodd" clip-rule="evenodd" d="M121.061 149.824C120.565 142.263 127.512 137.152 132.899 133.082C137.041 129.953 142.02 131.071 146.895 130.305C153.095 129.33 160.078 123.236 164.847 128.057C169.596 132.859 166.199 141.982 165.723 149.342C165.315 155.663 166.022 162.613 162.319 167.178C158.597 171.766 152.707 172.567 147.345 171.996C142.515 171.482 138.903 167.6 134.946 164.262C129.732 159.863 121.557 157.373 121.061 149.824Z" fill="white" fill-opacity="0.94"/>
</g>
<path d="M143.5 131.5L142.24 134.25L139.5 135.5L142.24 136.76L143.5 139.5L144.75 136.76L147.5 135.5L144.75 134.25L143.5 131.5ZM139.94 143.23C140.48 142.59 140.91 141.85 141.17 141.03C140.52 140.75 139.92 140.37 139.41 139.89C139 141.96 137.19 143.5 135 143.5C132.5 143.5 130.5 141.5 130.5 139C130.5 136.5 132.5 134.5 135 134.5C135.93 134.5 136.79 134.78 137.51 135.25C137.54 134.53 137.7 133.84 137.96 133.21C137.05 132.75 136.04 132.5 135.01 132.5C133.29 132.5 131.63 133.18 130.41 134.4C129.19 135.62 128.51 137.27 128.51 139C128.51 140.73 129.19 142.38 130.41 143.6C131.63 144.82 133.28 145.5 135.01 145.5C136.62 145.5 138.1 144.91 139.24 143.94L139.51 144.21V145L144.51 150L146.01 148.5L141.01 143.5H140.22L139.95 143.23H139.94Z" fill="white"/>
</g>
<defs>
<clipPath id="clip0_2352_12096">
<rect x="113.5" y="117.5" width="48" height="48" rx="8" fill="white"/>
</clipPath>
</defs>
</svg>
