<svg width="275" height="283" viewBox="0 0 275 283" fill="none" xmlns="http://www.w3.org/2000/svg">
<path d="M0 8.00001C0 3.58173 3.58172 0 8 0H267C271.418 0 275 3.58172 275 8V275C275 279.418 271.418 283 267 283H7.99999C3.58171 283 0 279.418 0 275V8.00001Z" fill="#FFE4E2"/>
<path d="M147.417 128.75H127.583C126.025 128.75 124.75 130.025 124.75 131.583V151.417C124.75 152.975 126.025 154.25 127.583 154.25H147.417C148.975 154.25 150.25 152.975 150.25 151.417V131.583C150.25 130.025 148.975 128.75 147.417 128.75ZM133.958 140.792C133.958 141.925 132.967 142.917 131.833 142.917H130.417V145.75H128.292V137.25H131.833C132.967 137.25 133.958 138.242 133.958 139.375V140.792ZM141.042 143.625C141.042 144.758 140.05 145.75 138.917 145.75H135.375V137.25H138.917C140.05 137.25 141.042 138.242 141.042 139.375V143.625ZM146.708 139.375H144.583V140.792H146.708V142.917H144.583V145.75H142.458V137.25H146.708V139.375ZM137.5 139.375H138.917V143.625H137.5V139.375ZM130.417 139.375H131.833V140.792H130.417V139.375Z" fill="#D92739"/>
</svg>
